{
    "accessors": {
        "accessor_buffer_Plane_0": {
            "bufferView": "bufferView_buffer_Plane_0",
            "byteOffset": 0,
            "byteStride": 32,
            "componentType": 5126,
            "count": 104,
            "max": [
                6.811185836791992,
                6.811185836791992,
                0
            ],
            "min": [
                -6.811185836791992,
                -6.811185836791992,
                -3.7312357425689697
            ],
            "type": "VEC3"
        },
        "accessor_buffer_Plane_1": {
            "bufferView": "bufferView_buffer_Plane_0",
            "byteOffset": 12,
            "byteStride": 32,
            "componentType": 5126,
            "count": 104,
            "max": [
                0.9982637166976929,
                0.9982636570930481,
                1.0
            ],
            "min": [
                -0.9982637166976929,
                -0.9982636570930481,
                -1.0
            ],
            "type": "VEC3"
        },
        "accessor_buffer_Plane_2": {
            "bufferView": "bufferView_buffer_Plane_0",
            "byteOffset": 24,
            "byteStride": 32,
            "componentType": 5126,
            "count": 104,
            "max": [
                2.499999761581421,
                2.499999761581421
            ],
            "min": [
                -1.4999998807907104,
                -1.4999998807907104
            ],
            "type": "VEC2"
        },
        "accessor_buffer_Plane_3": {
            "bufferView": "bufferView_buffer_Plane_1",
            "byteOffset": 0,
            "byteStride": 2,
            "componentType": 5123,
            "count": 156,
            "max": [
                103
            ],
            "min": [
                0
            ],
            "type": "SCALAR"
        }
    },
    "asset": {
        "profile": {
            "api": "OpenGL",
            "version": "3.0"
        },
        "version": "1.0"
    },
    "bufferViews": {
        "bufferView_buffer_Plane_0": {
            "buffer": "buffer_combined",
            "byteLength": 3328,
            "byteOffset": 0,
            "target": 34962
        },
        "bufferView_buffer_Plane_1": {
            "buffer": "buffer_combined",
            "byteLength": 312,
            "byteOffset": 3328,
            "target": 34963
        }
    },
    "buffers": {
        "buffer_combined": {
            "byteLength": 3640,
            "type": "arraybuffer",
            "uri": "buffer_combined.bin"
        }
    },
    "extensions": {
        "KHR_materials_common": {
            "lights": {}
        }
    },
    "extensionsUsed": [
        "KHR_materials_common"
    ],
    "meshes": {
        "mesh_Plane": {
            "name": "Plane",
            "primitives": [
                {
                    "attributes": {
                        "NORMAL": "accessor_buffer_Plane_1",
                        "POSITION": "accessor_buffer_Plane_0",
                        "TEXCOORD_0": "accessor_buffer_Plane_2"
                    },
                    "indices": "accessor_buffer_Plane_3",
                    "mode": 4
                }
            ]
        }
    },
    "nodes": {
        "node_Plane": {
            "children": [],
            "matrix": [
                1.0,
                0.0,
                0.0,
                0.0,
                0.0,
                1.0,
                0.0,
                0.0,
                0.0,
                0.0,
                1.0,
                0.0,
                0.0,
                0.0,
                0.0,
                1.0
            ],
            "meshes": [
                "mesh_Plane"
            ],
            "name": "Plane"
        }
    },
    "samplers": {
        "sampler_default": {}
    },
    "scene": "scene_Scene",
    "scenes": {
        "scene_Scene": {
            "extras": {
                "active_camera": null,
                "background_color": [
                    0.05087608844041824,
                    0.05087608844041824,
                    0.05087608844041824
                ],
                "frames_per_second": 24
            },
            "name": "Scene",
            "nodes": [
                "node_Plane"
            ]
        }
    }
}
